<?xml version="1.0" encoding="UTF-8" standalone="no"?>
<!-- Created with Inkscape (http://www.inkscape.org/) -->

<svg
   version="1.1"
   id="svg1"
   width="3175.2"
   height="3188.2932"
   viewBox="0 0 3175.2 3188.2932"
   xmlns="http://www.w3.org/2000/svg"
   xmlns:svg="http://www.w3.org/2000/svg">
  <defs
     id="defs1" />
  <g
     id="g1">
    <g
       id="group-R5">
      <path
         id="path2"
         d="m 9660.33,16356.1 c -31.03,-41.8 -59.04,-74 -80.8,-109.9 -178.16,-293.9 -376.7,-573.4 -598.78,-835.6 -118.27,-139.6 -247.01,-270.4 -364.71,-410.5 -135.8,-161.6 -301.58,-291.2 -451.71,-437.4 -52.39,-51 -111.01,-95.5 -165.21,-144.7 -130.54,-118.6 -264.95,-233.4 -388.79,-358.7 -128.37,-129.8 -216.91,-286 -257.04,-466.8 -54.25,-244.3 25.4,-447.6 198.24,-616.7 110.6,-108.2 244.77,-184.2 389.89,-237.9 340.34,-126 693.38,-190.1 1055.31,-196.2 212.76,-3.6 425.84,8.7 638.7,16 152.89,5.2 306.09,9.1 458.37,22.6 143.2,12.8 281.8,48.5 408.8,121.4 84.8,48.7 142.2,118.2 176.9,208.8 38.2,99.9 38.6,202.5 20,305.3 -50.5,279.1 -183.5,519 -357.8,738.5 -70.9,89.3 -154.3,165 -248.9,228.6 -132.73,89.4 -280.84,134.2 -438.05,156.9 -261.58,37.7 -488.76,-33.3 -679.31,-213.9 -159.3,-151 -276.73,-333 -358.63,-535.9 -46.01,-114 -80.26,-232.8 -118.91,-349.7 -51.79,-156.7 -157.27,-217.4 -316.6,-177.6 -120.14,29.9 -235.55,74 -341.59,138.3 -44.99,27.2 -87.78,61 -124.28,98.8 -94.75,98.2 -111.49,217.6 -51.19,340.6 53.61,109.4 132.27,199.4 224.49,277.9 119.14,101.4 238.39,202.6 358.1,303.4 226.71,190.7 454.11,380.7 680.59,571.7 253.31,213.6 459.07,462.9 578.56,776.4 10.63,28 21.65,56.3 36.93,81.8 70.34,117.2 187.1,143.5 298.03,62.6 58.89,-42.9 110.47,-95.8 165.76,-143.8 26.7,-23.2 45.7,-57.7 88.8,-63.8 50.4,57.4 75.2,126.1 99.7,194.5 55,153.6 105.9,308.8 163.2,461.6 256.7,684.8 580.1,1338 936.2,1975.7 173.8,311.1 347,622.6 525,931.2 87.9,152.5 162.7,313.1 278,449.6 180.5,213.5 415.3,310.2 687,308.7 223,-1.3 423.6,-83.4 593.6,-230.5 133.4,-115.3 260.9,-237.7 396.2,-350.8 190.1,-158.9 350.9,-346 516.1,-528.4 203.4,-224.4 393.9,-460.4 596.6,-685.3 211.8,-234.9 431.5,-462.6 647.8,-693.4 25.1,-26.8 50.6,-53 75.9,-79.5 225.5,-235.9 449.3,-473.3 677,-707.1 102.1,-104.8 210,-204.2 318.3,-302.8 135.3,-123.3 270.8,-246.8 411.4,-363.8 230.3,-191.7 464.4,-378.8 697.9,-566.7 281.1,-226.2 596,-389 940.9,-493.8 118.4,-36 239.6,-59.6 364.4,-47.8 88.8,8.4 176.7,23 260.8,88.2 -30.5,29.1 -54.1,55.8 -81.8,77.4 -191.6,149.7 -385,296.9 -575.8,447.5 -264,208.3 -531.3,412.8 -787.4,630.5 -238.3,202.5 -466.4,417.3 -694.2,631.9 -324.7,306 -648.8,612.9 -966.5,926.2 -502.8,495.9 -999.1,998.5 -1500.5,1496.1 -153.5,152.4 -309.8,302.6 -473,444.6 -218.4,190.1 -444.4,371.4 -667.7,555.9 -168.6,139.3 -365.6,211.1 -581.5,205.2 -307.7,-8.3 -587.7,-113.6 -834.9,-295.9 -236,-174.1 -427.2,-392.2 -571.4,-647.2 -168.8,-298.6 -332.5,-600.2 -491.2,-904.2 -265.2,-507.9 -524.8,-1018.7 -786.3,-1528.5 -72.9,-142.3 -143,-286.1 -216.4,-428.1 -24.4,-47.2 -51.4,-93.9 -83.94,-135.6 -64.91,-83.3 -138.88,-94.2 -228.16,-39.5 -22.3,13.7 -43.61,29 -80.47,53.6 z M 14205.4,7591.9 c 24,20.7 44.4,32.9 57.4,50.6 65,88.4 133.6,174.8 190.9,268.1 243.3,396 526.5,761.5 843,1100.9 202.1,216.8 418.7,419.4 644.2,612.2 75.9,64.9 152.8,129.7 220.9,202.3 125.4,133.6 238.1,278 340,430.8 155.7,233.5 127.8,519.7 -28.9,719.1 -131.8,167.7 -296.7,295.1 -494.5,378.8 -198.5,84 -405,129.7 -620.1,140.3 -122.9,6.1 -245.6,16.7 -368.4,26.1 -132.6,10 -265.1,26.4 -397.9,30.3 -199.6,5.9 -399.5,7.6 -598.5,-18.5 -155.4,-20.4 -309.1,-47.4 -459.3,-93.3 -122.8,-37.5 -220.2,-111.2 -296,-211.3 -57.4,-75.8 -92.6,-165.2 -80.3,-261.6 29.1,-225.7 79.8,-445.9 191.5,-647.8 170.5,-308.4 418.4,-522.9 759.3,-622.1 89.4,-26 181.5,-44.3 276.1,-32.8 106.3,13.1 210.5,36.5 308.4,80.1 150.8,67.3 287.4,155.7 385.4,292.4 148.7,207.2 266.9,429.7 330.3,678.7 9,35.5 18.7,71 31,105.4 40.4,113.4 129.8,171.8 248.5,153.3 163.3,-25.3 304.1,-99.5 413.9,-223.4 113.7,-128.3 123.2,-273.3 21.8,-410.9 -56.8,-76.9 -126.4,-145.9 -197.6,-210.5 -123.1,-111.9 -252.1,-217.3 -378.3,-325.8 -179.2,-154.2 -360.1,-306.4 -536.4,-463.8 -226.9,-202.6 -438.4,-418 -571.5,-699.2 -51.1,-107.9 -115.6,-210.2 -181.7,-310 -58.8,-88.6 -146.7,-102.8 -233.9,-43 -43.5,29.8 -80.2,69.6 -119.4,105.5 -34.1,31.3 -64.3,68.6 -128.5,72.3 -15.9,-19.2 -40,-41.7 -55.5,-69 -24.5,-43.3 -46.3,-88.8 -64.1,-135.3 -131.9,-345.4 -265.6,-690.1 -392.7,-1037.3 -140.9,-385.1 -297.1,-763.4 -475.6,-1132.7 -216.2,-447.2 -454.5,-882.4 -714.6,-1305.6 -97.6,-158.7 -194.2,-317.6 -329.9,-449.9 -156.9,-152.9 -343.2,-212.8 -556,-196 -133.1,10.6 -262,44 -387.5,92.2 -269.7,103.6 -491.7,278.5 -701.8,469.4 -234.6,213.1 -440.61,453.9 -649.06,691.9 -214.92,245.4 -428.58,491.9 -643.84,737.1 -169.16,192.6 -338.98,384.6 -510.23,575.3 -231.29,257.6 -462.59,515.3 -696.93,770.1 -230.44,250.6 -486.95,473.4 -750.54,688.1 -268.5,218.7 -538,436.1 -807.47,653.6 -315.05,254.3 -670.43,417.9 -1071.72,481.9 -116.62,18.6 -225.02,-0.4 -331.32,-43.7 -49.41,-20.1 -93.54,-49.4 -126.83,-93.7 12.35,-51.8 49.42,-81.9 85.52,-109.9 178.95,-138.8 357.74,-277.9 539.36,-413.2 539.62,-401.9 1081.91,-800.2 1620.05,-1204 146.23,-109.7 285.48,-229.7 420.93,-352.7 229.63,-208.5 439.24,-437 635.27,-677.1 256.88,-314.7 506.54,-635.4 764.43,-949.2 177.46,-216 356.7,-431.3 547.91,-635 175.27,-186.6 361.75,-363.9 554.09,-533 210.5,-185.1 440.18,-346.5 699.08,-459.4 280.6,-122.4 573.5,-173.2 877.7,-120.7 510.1,88 896.4,359.7 1158.5,804.7 98,166.4 187.4,337.9 276.1,509.5 234,453 445.7,916.6 653.6,1382 141.3,316.2 282.8,632.4 423.7,948.8 47.5,106.5 92.8,213.9 140.4,320.3 33.5,74.8 78.2,138.7 164.3,156.4 72,-66.4 72,-66.4 133.3,-237.1 z m -5142.67,11675 c -42.96,-43.3 -83.87,-77.1 -115.57,-118 -106.06,-136.8 -209.92,-275.4 -312.6,-414.8 -134.32,-182.3 -263.76,-368.2 -400.6,-548.6 -217.87,-287.2 -472.18,-542.9 -723.75,-799.1 -459.7,-468.1 -931.94,-924 -1400.15,-1383.8 -83.08,-81.5 -171.51,-157.7 -258.25,-235.5 -168.52,-151.1 -338.09,-301.1 -506.28,-452.6 -160.79,-144.8 -317.89,-293.8 -481.06,-435.9 -248.88,-216.7 -490,-441.6 -715.99,-681.8 -156.31,-166.1 -280.25,-355.2 -354.34,-573.9 -89.22,-263.4 -116.85,-532.1 -73.03,-807.3 33.84,-212.4 100.52,-412.6 210.73,-599.3 95.62,-162 211.05,-307.9 340.78,-442 106.58,-110.1 224.97,-207.6 364.28,-276.6 223.75,-110.9 447.25,-222.4 669.84,-335.6 371.16,-188.7 741.03,-379.9 1112.45,-568.1 130.68,-66.2 264.02,-127.3 396.69,-189.5 195.98,-91.9 392.3,-183.1 588.77,-274 91.08,-42.2 156.69,-108.9 202.15,-197.2 -35.18,-75.1 -133.88,-80.1 -164.5,-156.2 23.05,-50.1 62.85,-80.5 104.05,-108.3 209.81,-141.5 417.64,-286.1 631.12,-421.9 200.29,-127.4 393.89,-263.8 562.65,-429.9 232.59,-228.8 456.1,-466.8 682.04,-702.3 82.94,-86.5 164.7,-174.4 241.68,-266.1 112.24,-133.7 238.27,-252.4 382.66,-349 161.1,-107.7 338.9,-172.1 536.5,-158.6 170.2,11.6 307.3,81.6 389.3,239.3 13.8,26.5 30.1,51.8 44.9,77.8 107.5,188.4 209.4,379.5 266,590.5 90.9,339.5 128.5,686.9 143.8,1036.7 10.3,236.2 4.4,473 -20,708.4 -14.8,142.1 -34.9,284 -59.4,424.8 -17.3,99.7 -64.4,189.4 -126.6,269 -109.7,140.4 -254.8,195.4 -431.4,173 -107.4,-13.6 -205.9,-51 -302.8,-97.2 -218.3,-104.3 -418.9,-237.5 -591.1,-405.2 -224.26,-218.5 -323.83,-487.4 -286.99,-806 40.2,-347.6 214.25,-600.9 509.29,-780.2 140.7,-85.5 293.5,-141.9 445.7,-200.6 62.2,-24 125.4,-45.3 187.2,-69.8 119.3,-47.4 155.4,-103 142.4,-231.1 -14.2,-140.1 -69.3,-264.9 -168.3,-365.3 -87,-88.2 -191.7,-141.4 -321.9,-133.3 -106.1,6.5 -193.4,51.8 -263.7,126.3 -139.2,147.7 -277.28,296.8 -410.15,450.1 -165.61,191.2 -327.1,386.1 -487.44,581.7 -197.56,241.1 -408.56,466 -689.77,612.5 -20.65,10.7 -40.97,22.4 -60.42,35.2 -66.8,43.9 -135.83,85 -198.91,133.7 -63.78,49.4 -71.22,99.3 -27.14,165.5 31.16,46.7 69.39,89.2 107.57,130.7 53.71,58.4 105.5,117.9 149.68,187.5 -63.35,69.5 -144.69,100.7 -223.91,132.7 -370.66,149.6 -743.33,294.3 -1113.09,446.1 -360.43,147.9 -722.22,293.6 -1076.09,456.2 -393.38,180.7 -779.24,378 -1154.66,594.6 -216.59,124.9 -427.99,257.8 -625.12,412.3 -139.5,109.3 -224.57,250.9 -260.81,424.6 -40.25,192.9 1.01,370.4 93.58,539 90.32,164.6 207.17,310.1 333.19,448 245.4,268.5 522.87,503.4 791.77,747.1 212.1,192.2 427.71,380.5 642.61,569.7 172.43,151.7 343.59,305 519.83,452.3 301.78,252 597.85,510.1 868.75,795.6 176.45,185.9 349.45,375.1 524.41,562.5 102.25,109.5 205.8,217.8 307.95,327.3 218.9,234.9 405.13,493.8 572.32,767.6 214.78,351.7 363.36,725.6 401.33,1139.2 8.16,88.8 -11.91,169.4 -62.15,257.1 z m 7382.17,-5035.8 c -61.9,45.8 -113.7,86.6 -167.9,123.9 -230.4,158.7 -462.3,315.2 -692.2,474.7 -257.6,178.7 -499.4,377.6 -728.8,590.8 -215,199.8 -414,415.2 -586.6,653.2 -155.7,214.7 -354.5,378.6 -583.5,507 -224.8,126.1 -442.7,119.6 -654.2,-39.2 -185,-138.9 -307.2,-319.8 -386.5,-534.1 -81.8,-221.1 -104,-453.6 -131.6,-684.8 -19.6,-165.2 -32.8,-331.1 -46.2,-496.9 -13,-162.5 -27.5,-325 -31.9,-487.8 -3,-112.7 7.8,-226 16.6,-338.7 16.8,-214.3 69.7,-418.6 162.3,-614.3 88.3,-186.7 281.2,-277.2 489.5,-236.1 361.5,71.2 658.9,245.7 883,539 114.1,149.2 204.2,312.2 248.8,496.9 65.6,271.7 19.7,522.5 -146.6,748.1 -96.5,130.9 -219.6,233.8 -366,303.2 -159.3,75.5 -323.4,141 -484.8,212 -60.8,26.8 -123.3,51.7 -179.3,86.7 -109.6,68.4 -135.9,145.4 -82.5,264 46.3,102.8 99.9,203.7 162.5,297.4 92.2,138.1 279.7,178.2 426.6,100.1 35.1,-18.6 67.1,-43.3 99.9,-66 150.3,-103.7 257.6,-250 376.6,-384.3 147.9,-166.8 290.3,-338.5 435.9,-507.4 108.7,-126 220.6,-249.4 327.7,-376.7 94.9,-112.9 197.8,-216.4 321.9,-296.8 100.6,-65.1 202.9,-127.5 304.1,-191.5 31,-19.6 63,-38.1 91.1,-61.3 85.9,-70.7 92.3,-146.3 21.4,-233.8 -27.2,-33.6 -58.3,-64.3 -83.3,-99.5 -78.8,-111.2 -65.8,-159.1 55,-215.1 6,-2.8 12.1,-5.5 18.2,-8.1 254.6,-107.6 507.7,-218.7 764,-322 355.2,-143.1 713.5,-278.7 1069,-421.1 166.8,-66.9 336.1,-131.3 493.9,-216 407.7,-218.9 810.4,-447.4 1213.7,-674.5 186.3,-104.9 360.2,-225.1 496.3,-395.9 179.2,-225 228.6,-464.8 124.4,-737.9 -131.4,-344.5 -343.5,-628.9 -617.8,-871.2 -194.6,-171.9 -386.2,-347.1 -579.2,-520.8 -143.5,-129.1 -286.9,-258.4 -430.9,-387 -163.8,-146.4 -328.8,-291.5 -492.4,-438.1 -153.7,-137.7 -307,-275.9 -459.3,-415.2 -220.9,-202.2 -443,-403.4 -660.2,-609.6 -108.5,-103 -208.2,-215.4 -310.4,-324.9 -79.5,-85.2 -159.1,-170.5 -234.3,-259.4 -249.5,-295.4 -484.3,-602 -685.6,-933 -126.3,-207.7 -252.1,-415.3 -349.4,-639.3 -88.4,-203.5 -123.7,-414.2 -102.5,-633.9 6.5,-67.3 16.2,-137.7 80.1,-195.4 26.8,23.9 54.6,42.3 74.1,67.1 88.3,112.6 178.2,224.2 260.3,341.2 229.7,327.6 480,638.7 742.8,940 164.1,188.1 328.9,375.7 495.7,561.4 182.4,203 363.8,407.1 552.5,604.2 147.3,153.8 303.1,299.6 458.5,445.4 279.1,262 561.9,520.2 840.9,782.3 296.1,278.1 589.7,558.9 884.4,838.4 16.9,16.1 34.5,31.4 51.6,47.2 203.2,187.5 407.2,374.6 581.1,590.4 126.4,156.8 219.6,333.2 274,528.7 56.6,203.6 79.6,409.2 60.4,621.4 -18.3,202.1 -70.2,392.3 -156,575 -87.1,185.4 -200.8,353.4 -335.4,506.5 -114.5,130.2 -235.6,254.5 -393,335.6 -153.9,79.3 -306.6,161.2 -461.3,238.9 -461.3,232 -923.6,462 -1385.1,693.7 -306.6,153.8 -615.5,303.6 -907.4,484.8 -30.9,19.2 -61.6,40.1 -88.2,64.8 -55.3,51 -56.7,78.1 -13,137 13.7,18.4 29,35.5 54.5,66.6 z m -4227.4,-3979.3 c -31,-94.4 -42.8,-178.7 -43.3,-264.9 -1.5,-259.9 1.6,-519.9 -4.6,-779.7 -4.2,-179.4 -19.4,-358.7 -32.6,-537.8 -12.7,-172.6 -27,-345.1 -44.3,-517.2 -55.1,-547.9 -139.3,-1090.6 -318.7,-1613.6 -47.3,-138 -111.5,-270.7 -173.5,-403.2 -124.8,-266.5 -426,-367 -693.7,-235.7 -115.9,56.8 -223.4,132 -331.5,203.6 -205.2,136 -362.2,322.4 -520.4,507.4 -157.88,184.7 -316.2,369.1 -478.53,549.9 -202.4,225.4 -406.64,449.3 -614.87,669.3 -118.92,125.6 -246.42,243.2 -371.78,362.6 -113.29,107.9 -228.16,214.3 -343.67,319.9 -497.43,454.6 -1057.47,808.2 -1692.15,1038.8 -521.4,189.4 -1020.18,426.4 -1497.09,708.7 -266.48,157.8 -530.91,319.5 -790.53,488.3 -293.43,190.7 -566.85,408.7 -834.73,634.2 -370.47,312 -700.21,665.2 -1039.4,1008.8 -116.81,118.3 -223.68,246.5 -334.99,370.3 -11.13,12.3 -22.17,24.9 -32.22,38.1 -105.08,138.3 -108.64,253.5 -2.89,391.8 70.66,92.4 146.79,181.1 226.01,266.4 99.76,107.3 205.23,209.3 308.15,313.8 322.68,327.3 642.41,657.7 969.22,980.9 158.42,156.7 330.08,300 495.81,449.2 12.37,11.2 26.16,20.8 37.88,32.6 202.43,202.8 405.27,405.2 606.72,609 241.19,243.9 477.88,492.4 722.56,732.8 230.37,226.3 468.79,444.5 703.25,666.7 45.93,43.5 89.97,89 134.85,133.7 1244.76,1238.4 2487.93,2478.3 3735.55,3713.8 264.75,262.1 533.05,522 834.75,743.6 251.6,184.6 528.1,312.7 838.5,352.3 127.9,16.3 259.5,10.3 388.9,4.3 70.5,-3.3 144.6,-32.6 171.2,-103.7 26.9,-72 -16.7,-135.8 -65.8,-187.9 -61.7,-65.5 -125.2,-129.4 -191.2,-190.4 -211.3,-195 -395.9,-413.2 -574.4,-637.9 -109.6,-138 -227.4,-269.7 -344.2,-401.9 -240.5,-272.3 -470.8,-552.8 -676.8,-852.2 -230.4,-334.9 -460.09,-670.2 -685.56,-1008.4 -281.14,-421.6 -537.3,-858.2 -763.72,-1311.9 -108.56,-217.5 -217.75,-434.8 -325.45,-652.7 -161.6,-327 -356.44,-632.9 -592.39,-910.9 -109.62,-129.2 -217.7,-261.2 -353.79,-365.5 -23.63,-18.2 -43.29,-41.5 -64.92,-62.2 -204.28,-196 -408.42,-392.2 -612.96,-587.9 -141.94,-135.9 -284.25,-271.4 -426.75,-406.6 -82.09,-77.9 -167.42,-152.6 -246.86,-233.1 -213.59,-216.5 -406.46,-449.5 -557.34,-715.1 -87.61,-154.2 -160.94,-315.3 -206.17,-486.5 -71.36,-270 -35.31,-529 104.54,-771.5 108.27,-187.7 248.53,-347 437.97,-455.8 74.5,-42.8 154.77,-79.3 236.73,-104.6 257.66,-79.7 516.04,-157.8 776.63,-227.2 302.87,-80.6 612.5,-126.7 924.09,-160.3 267.92,-28.9 535.41,-61.7 803.16,-92.2 33.03,-3.7 66.47,-5.2 99.73,-5.2 196.58,-0.5 393.17,0.5 589.73,-0.8 55.16,-0.3 104.39,13.2 151.95,40.8 195.8,113.6 354.75,269.4 502.78,437.6 16.9,19.2 27.1,44.3 44.3,73.3 -23.1,9.4 -39.8,17.3 -57.2,22.7 -9.3,2.8 -19.9,1.2 -29.9,1.5 -272.85,6.9 -545.81,11.3 -818.57,21.5 -192.75,7.2 -385.22,22.1 -577.79,33.8 -116.23,7.1 -232.68,12 -348.59,22.6 -218.65,19.9 -438.19,35.1 -655.17,67.1 -349,51.5 -696.68,112.4 -1044.02,174.4 -231.99,41.4 -446.2,133.9 -648.92,252.2 -122.89,71.7 -205.92,175.7 -244.61,315.3 -27.26,98.3 -19.45,193.9 24.17,282.1 34.93,70.7 77.41,142 132,197.9 251.34,257.5 505.22,512.7 764.02,762.6 148.32,143.3 308.06,274.7 462.13,412 82.01,73.1 164.86,145.5 243.9,221.7 249.29,240.5 503.02,476.8 743.68,725.8 289.5,299.4 554.21,620.7 793.85,962.3 188.72,269 323.51,566.5 465.33,860.5 82.49,170.9 162.82,343 241.56,515.7 102.23,224.3 202.36,449.5 302.58,674.7 96.45,216.7 216.15,420.2 347.75,617.2 46.2,69.3 96.6,136.7 134,210.6 98.6,194.7 232.9,364.5 361.7,538.4 230,310.7 472.3,611.5 725.4,903.3 224.8,259.2 453.5,515.5 706.8,747.5 196.3,179.8 399.7,352.1 602.2,525 92.9,79.4 206,82.4 302.5,7.5 142.1,-110.1 282,-223.2 419.4,-339.1 114.5,-96.5 226.4,-196.4 335.2,-299.3 74.8,-70.8 142,-149.6 213.3,-224.2 191.1,-199.8 385.9,-396.1 573.2,-599.4 781.4,-848.2 1620.8,-1639.2 2425.2,-2464.7 306.9,-314.9 614.5,-629.1 922.3,-943.1 354.4,-361.6 709.7,-722.4 1064.2,-1084 305.5,-311.6 609.9,-624.2 915.4,-935.8 296.2,-302 592,-604.5 890.4,-904.3 148,-148.7 305.8,-287.6 451.5,-438.5 185.2,-191.8 355.1,-397.2 491.6,-627.9 133.4,-225.8 234.7,-464.4 270.4,-725.8 16.5,-120.7 46.7,-243.6 -2.8,-364.8 -7.6,-18.5 -12.7,-38 -20.9,-56.1 -20.3,-45.2 -56.7,-64.6 -105,-58 -70.6,9.8 -134.8,32.3 -187,85.6 -116.4,119.1 -236.1,235 -352.8,353.9 -226.5,230.8 -469.4,443.6 -712.4,656.4 -386.5,338.4 -792.8,650.3 -1221.9,933.2 -166.7,110 -326.7,230.2 -490.4,345 -292.3,204.9 -603.1,380.1 -913.6,554.8 -246.6,138.8 -498.9,267.6 -750.9,396.4 -157.2,80.3 -320,149.5 -477.6,228.8 -358.6,180.3 -688.4,404.8 -1002.2,654.4 -279.5,222.5 -538.9,466.6 -784.6,725 -100.8,105.9 -195.9,218.4 -283.4,335.5 -184.6,247.1 -402.9,460.5 -631.9,665.1 -201.8,180.4 -412.7,348.6 -649.6,479.9 -130.7,72.4 -266.5,138.2 -405.7,192.4 -290.1,113 -569.5,74.5 -832.6,-87 -326.2,-200.3 -545.3,-482.2 -649.8,-852.8 -121.3,-429.7 -242.9,-859.4 -317.7,-1300.2 -32.2,-190.2 -52.1,-382.5 -74.7,-574.1 -28.5,-241.6 -42,-484.1 -42.6,-727.4 -0.3,-83 -10.3,-166 -14.5,-249.1 -14.5,-283.7 90.6,-519.8 286.7,-720 60.6,-61.8 118.8,-126 178.8,-188.4 8.5,-8.8 21.1,-13.8 32,-20.7 44.7,24.3 35.4,64.4 35.9,98.8 2,126.6 -1.4,253.4 3.4,379.9 8.9,236 22,471.9 33.4,707.9 0.7,13.3 1.5,26.6 2.1,39.9 8,199.6 10.5,399.5 25.2,598.6 27.7,374.9 48.3,750.6 133.6,1119.2 83.6,360.7 182.4,716.7 301.9,1066.9 33.6,98.5 83.6,189.1 158.8,263.2 122.5,120.7 271.9,160.3 439.6,144 191.7,-18.6 349.3,-110.1 482.2,-241.5 215.5,-213 425.4,-431.8 635.9,-649.8 111,-115 219.8,-232.2 326.9,-350.7 129.5,-143.3 253.2,-291.7 384.6,-433.1 183.5,-197.4 357.3,-404.2 563.8,-579.7 139.5,-118.5 270.4,-247.2 411,-364.3 199.5,-166.1 399.1,-333 608.2,-486.6 291.3,-214 617.3,-369.7 946,-516.1 477.8,-212.9 953.7,-430 1415.6,-675.7 536.5,-285.5 1043.3,-617.7 1511.8,-1005.6 212.7,-176.2 424,-355 624.4,-544.9 333.6,-316.1 658,-642 985.6,-964.3 26,-25.6 49.6,-54.3 69.9,-84.6 80.2,-119.3 90.8,-244 7.4,-364.3 -70,-101.1 -144.1,-200.6 -226.5,-291.6 -140.7,-155.5 -287,-306.1 -435,-454.7 C 20313,9329.6 19526,8542.6 18740.9,7753.9 18428.3,7440 18120.8,7120.9 17807.3,6808 17373.4,6375 16933.4,5948.1 16500.7,5514 15475.3,4485.1 14452.2,3453.9 13429.2,2422.6 c -170.6,-172 -359.8,-316 -580.6,-417.8 -230.1,-106 -470.8,-164.3 -724.1,-169.3 -70,-1.3 -140.2,-3.3 -209.8,2.1 -45.6,3.5 -93,13.3 -134.5,31.6 -63.6,28.1 -80.9,74.8 -55.8,139.6 12.8,33.2 33,65.8 57.2,91.9 106.2,114.9 212.2,230.3 323.6,340.1 220.9,217.7 426.7,448.9 625.6,686.5 205.1,245.1 411.5,489.1 613.1,737.1 336.8,414.2 635.3,855.6 922,1305.4 238.6,374.2 449.7,763.3 640.3,1163.8 115.9,243.6 225,490.7 347.8,730.8 210,410.4 456.9,798.3 761.7,1145.5 133.7,152.3 267.5,305.4 424.5,436.5 89.3,74.5 165.8,163.9 251.3,243.3 217.1,201.5 436.9,400.3 654,601.9 341.1,316.6 654.4,655.6 859.2,1080.6 74.1,153.6 127,314.8 172.4,478.9 52.3,188.7 31.5,373.3 -45.3,547.2 -122.5,277.1 -304.9,507.8 -576,656.2 -63.9,35 -132.4,63.1 -201.2,87.4 -500.8,177.5 -1014.5,302.4 -1541.1,373.9 -283.7,38.5 -567.6,73.2 -854.3,79.3 -206.3,4.5 -412.7,7.9 -618.7,19 -169.2,9 -316.2,-39 -442.2,-149.4 -107.5,-94.3 -212.9,-191.3 -315.7,-290.8 -39.3,-38 -68.8,-86.2 -108.2,-136.7 64.4,-27.3 118.6,-37.3 175,-38.9 259.6,-7.3 519.6,-7.1 778.6,-24.2 346.2,-22.8 692.6,-8.1 1038.7,-20 538.2,-18.6 1067,-98.7 1580.3,-266.1 164.6,-53.7 327.7,-112.1 490.7,-170.3 82.4,-29.5 155.1,-76.2 218.5,-137.2 127.9,-123 159.8,-271.2 118,-439.6 -26.1,-105.4 -80.7,-197.2 -139.4,-286.2 -125.5,-190.3 -278,-356.7 -451.1,-505 -136.6,-117 -270.8,-236.6 -405.2,-356 -171.8,-152.5 -342.8,-305.8 -514.1,-458.8 -10,-8.9 -20,-17.8 -29.5,-27 -205.9,-199.2 -417.1,-393.1 -616.4,-598.7 -338.6,-349.3 -662.8,-711.3 -932.7,-1118.6 -203.2,-306.7 -369.3,-631.5 -512.2,-970.4 -166.8,-395.9 -339.9,-789.3 -522.5,-1178.1 -213,-453.7 -480.9,-875.7 -782.7,-1275.6 -212.7,-281.8 -426.7,-562.6 -645.8,-839.3 -167.4,-211.4 -344.6,-415.4 -539.1,-602.6 -175.1,-168.6 -354.7,-332.4 -533.9,-496.6 -93.2,-85.4 -189.4,-167.5 -284.8,-250.4 -17.5,-15.2 -37.1,-28.3 -56.7,-40.8 -105.1,-66.8 -213,-74.3 -320,-7.3 -64.7,40.6 -127.6,84.9 -187.4,132.5 -62.4,49.6 -122.1,103.2 -179.7,158.5 -199.6,191.3 -400.9,380.8 -595.79,576.8 -577.83,581.2 -1153.17,1164.9 -1728.81,1748.2 -145.01,146.9 -285.95,297.9 -431.66,444.2 -112.78,113.2 -232.57,219.4 -344.95,332.9 -438.2,442.8 -875.1,886.9 -1311.68,1331.2 -291.81,297.1 -581.63,596 -873.49,893 -345.56,351.6 -690.15,704.2 -1039.24,1052.3 -352.08,351.1 -708.97,697.3 -1064.14,1045.3 -218.88,214.4 -441.87,424.7 -656.74,643.1 -187.94,191 -340.06,410 -460.5,649.8 -93.29,185.7 -160.94,380.7 -190.16,587 -13.51,95.3 -20.96,192.1 -22.64,288.4 -2.73,155.4 94.33,219.8 236.64,158.5 38.64,-16.7 74.45,-44.3 105.51,-73.4 143.47,-134.2 283.71,-271.9 427.15,-406.2 194.47,-182 387.74,-365.5 587.07,-542.1 266.77,-236.4 545.9,-457.9 832.94,-669.4 413.1,-304.4 832,-600.5 1262.33,-880.2 226.34,-147 458.72,-283.1 701.13,-403.3 462.62,-229.3 923.13,-463.1 1381.06,-701.6 337.67,-175.9 652.95,-385.8 937.44,-641.8 270.41,-243.4 521.01,-504.8 760.51,-778.2 225.93,-257.8 444.63,-522.8 694.52,-758.6 287.09,-270.9 595.5,-513 955.6,-682 180.1,-84.6 367.6,-140.8 568.5,-132.6 324.3,13.2 589.4,149.4 798,396.7 159.9,189.6 248.4,416.7 331.4,645.6 110.5,305 179.8,620.9 225.6,941.2 46.6,326.1 86,653.4 124.6,980.6 33.9,287.5 65.1,575.4 92.5,863.5 17,178.7 -0.6,354.7 -97.4,511.4 -43.3,70.2 -96.6,135.8 -153.3,195.9 -63.8,67.6 -136.4,127 -205.8,189.2 -9.2,8.2 -22.4,11.9 -49.7,25.9"
         style="fill:#143a1e;fill-opacity:1;fill-rule:nonzero;stroke:none"
         transform="matrix(0.13333333,0,0,-0.13333333,0,3188.2933)" />
      <path
         id="path3"
         d="m 13662.1,14333.9 c -4.8,-118.7 -24.5,-211.8 -69.8,-299.5 -77.1,-149 -168.3,-286.3 -302.1,-391.2 -47.8,-37.4 -98.9,-67.2 -161.6,-71.3 -90.8,-5.8 -159.8,26.9 -191.3,111.9 -26.2,70.3 -42.3,147.3 -46.2,222.2 -7.6,149.3 -1.9,299.2 -5,448.7 -3.7,172.7 -12.1,345.2 -15.9,517.8 -0.9,42.7 2.2,87.1 13.2,128.1 26,97.1 111.3,140.5 201.3,95.3 82.6,-41.4 161.7,-92.5 235.4,-148.5 128.9,-98 227.9,-221.5 292.3,-372.3 36.2,-84.7 42.6,-173.4 49.7,-241.2"
         style="fill:#143a1e;fill-opacity:1;fill-rule:nonzero;stroke:none"
         transform="matrix(0.13333333,0,0,-0.13333333,0,3188.2933)" />
      <path
         id="path4"
         d="m 10974.2,9336.5 c 0,-63.2 5.5,-127 -1.6,-189.4 -6.6,-58.5 -19.8,-118.4 -42.3,-172.6 -30.8,-74.5 -86.7,-93.1 -163.8,-64.9 -85.8,31.4 -157.1,86.5 -224.8,145.6 -116.7,101.6 -207.6,221.8 -274.9,362.7 -80.9,169.1 -89.6,338.5 -25.5,511.9 68.5,185.4 184.7,337.2 339.3,459.5 23.3,18.5 48.9,35 75.6,47.9 100.2,48.6 189.4,19.1 225.7,-86.7 32.2,-93.7 50.6,-192.6 68.5,-290.4 15.5,-84.4 25.5,-168.8 6,-256.4 -11.9,-53.6 -2.3,-112.6 1.1,-168.9 6,-99.4 14.5,-198.7 22,-297.9 -1.8,-0.2 -3.5,-0.3 -5.3,-0.4"
         style="fill:#143a1e;fill-opacity:1;fill-rule:nonzero;stroke:none"
         transform="matrix(0.13333333,0,0,-0.13333333,0,3188.2933)" />
      <path
         id="path5"
         d="m 14299.9,10311.4 c -170.3,4 -304.8,60 -429.8,138.7 -78.4,49.4 -156,103.2 -223.2,166.4 -49.4,46.5 -88.1,108.2 -119.1,169.3 -33.2,65.4 -8.3,125.6 57.6,158.4 34.9,17.4 74.8,27.8 113.6,33.4 170.9,24.8 342.1,47.7 513.4,68.7 31.4,3.8 64.2,-3.9 96.3,-7.3 16.2,-1.7 32.2,-9.1 48.1,-8.4 135.9,6.6 271.7,18.1 407.7,20.5 75.7,1.3 152.6,-7.2 227.3,-20.5 67.1,-11.9 91.8,-59 76.1,-127 -6,-25.6 -17,-50.5 -29,-74 -69,-135.5 -160.4,-251.6 -289.4,-335.8 -109.3,-71.4 -225,-128.8 -350.7,-164.3 -38,-10.8 -77.9,-14.4 -98.9,-18.1"
         style="fill:#143a1e;fill-opacity:1;fill-rule:nonzero;stroke:none"
         transform="matrix(0.13333333,0,0,-0.13333333,0,3188.2933)" />
      <path
         id="path6"
         d="m 8755.89,13065.4 c -4.61,70.8 17.92,127.4 50.58,177 158.4,240.8 361.45,424.2 650.04,495.5 186.28,46 363.38,16.2 534.27,-62.3 132.22,-60.7 244.22,-149.1 331.12,-265.8 31.3,-42 56.4,-90.6 74.8,-139.7 28.9,-77.2 15.8,-117.9 -49.4,-164.5 -34.6,-24.7 -74,-51.9 -114.2,-57.8 -101.3,-14.9 -204.2,-25.2 -306.41,-24.3 -79.58,0.8 -157.79,16.8 -234.6,-20.1 -22.41,-10.8 -52.17,-8.3 -78.58,-8.4 -209.58,-0.5 -419.17,-0.6 -628.76,0 -81.13,0.3 -157.48,18.1 -228.86,70.4"
         style="fill:#143a1e;fill-opacity:1;fill-rule:nonzero;stroke:none"
         transform="matrix(0.13333333,0,0,-0.13333333,0,3188.2933)" />
      <path
         id="path7"
         d="m 4313.31,4323.3 -794.24,-754.1 -516.96,544.4 134.36,127.6 364.7,-384.1 188,178.5 -314.81,331.6 134.36,127.5 314.81,-331.5 337.52,320.4 152.26,-160.3"
         style="fill:#040606;fill-opacity:1;fill-rule:nonzero;stroke:none"
         transform="matrix(0.13333333,0,0,-0.13333333,0,3188.2933)" />
      <path
         id="path8"
         d="m 3657.44,5028.1 -860.64,-677.3 -502.22,638.1 145.6,114.6 365.45,-464.3 190.8,150.1 -340.04,432.1 145,114.1 340.05,-432.1 234.24,184.4 -378.39,480.8 145,114.1 515.15,-654.6"
         style="fill:#040606;fill-opacity:1;fill-rule:nonzero;stroke:none"
         transform="matrix(0.13333333,0,0,-0.13333333,0,3188.2933)" />
      <path
         id="path9"
         d="m 2131.16,5556.4 612.24,389 -88.55,139.4 c -33.12,52.1 -59.97,87.8 -80.55,107.2 -26.8,25.5 -55.58,42.4 -86.35,50.9 -30.75,8.5 -70.85,5.9 -120.27,-7.8 -49.41,-13.7 -109.85,-43.3 -181.32,-88.7 -71.45,-45.4 -122.3,-86.5 -152.54,-123.5 -30.24,-36.9 -48.87,-73.5 -55.88,-109.8 -7.01,-36.4 -3.21,-74.4 11.39,-114.1 10.68,-29.8 40.19,-82.7 88.54,-158.8 z m -37.77,-286.1 -216.77,341.2 c -48.88,76.9 -80.26,139.3 -94.13,187.1 -18.49,64.4 -19.62,128.8 -3.44,193.4 16.2,64.6 47.42,125.8 93.66,183.5 46.24,57.7 112.65,114 199.24,169.1 76.09,48.3 147.67,80.5 214.75,96.6 81.96,19.6 157.36,21.2 226.22,4.8 52.09,-12.3 104.47,-40.4 157.11,-84.3 39.22,-32.9 80.72,-83.8 124.53,-152.7 l 223.18,-351.2 -924.35,-587.5"
         style="fill:#040606;fill-opacity:1;fill-rule:nonzero;stroke:none"
         transform="matrix(0.13333333,0,0,-0.13333333,0,3188.2933)" />
      <path
         id="path10"
         d="m 2422.27,6822.3 -978.92,-491.1 -364.15,725.8 165.6,83.1 264.99,-528.2 217.02,108.9 -246.57,491.5 164.94,82.7 246.56,-491.4 266.43,133.6 -274.37,546.9 164.94,82.8 373.53,-744.6"
         style="fill:#040606;fill-opacity:1;fill-rule:nonzero;stroke:none"
         transform="matrix(0.13333333,0,0,-0.13333333,0,3188.2933)" />
      <path
         id="path11"
         d="m 1292.1,7746.4 -58.17,153 c -37.72,99.1 -65.46,159.4 -83.23,180.9 -17.76,21.5 -39.54,35.3 -65.34,41.5 -25.79,6.2 -54.05,3.4 -84.77,-8.3 -34.445,-13.1 -58.758,-32.8 -72.953,-59.3 -14.18,-26.4 -17.696,-57.5 -10.532,-93.1 4.051,-17.7 22.012,-68.4 53.887,-152.2 l 61.358,-161.3 z m 669.35,18.1 -1023.637,-389.4 -165.489,435 c -41.609,109.4 -62.656,192.4 -63.129,248.9 -0.468,56.6 17.133,108.7 52.813,156.4 35.687,47.7 83.785,83 144.293,106.1 76.808,29.2 148.829,30.7 216.039,4.6 67.23,-26.1 124.44,-81.6 171.64,-166.5 9.08,54.6 23.68,102.4 43.79,143.3 20.13,41 60.59,101.3 121.42,180.9 l 152.15,201 94.04,-247.2 -165.9,-234.2 c -59.41,-83.3 -95.75,-138.7 -109.03,-166.1 -13.27,-27.5 -19.6,-53.6 -18.96,-78.4 0.65,-24.8 10,-60.9 28.07,-108.4 l 15.93,-41.9 427.33,162.6 78.63,-206.7"
         style="fill:#040606;fill-opacity:1;fill-rule:nonzero;stroke:none"
         transform="matrix(0.13333333,0,0,-0.13333333,0,3188.2933)" />
      <path
         id="path12"
         d="M 1004.68,9276.6 650.23,9027 l 430.69,-39.3 z m 315.09,504.2 61.37,-232.6 -216.14,-155.9 111.69,-423.3 263.6,-23.9 59.85,-226.9 -1167.792,133.1 -59.657,226.1 947.079,703.4"
         style="fill:#040606;fill-opacity:1;fill-rule:nonzero;stroke:none"
         transform="matrix(0.13333333,0,0,-0.13333333,0,3188.2933)" />
      <path
         id="path13"
         d="M 1297.61,9931.5 225.313,9758 l -35.325,218.3 890.142,144 -87.829,542.8 182.159,29.5 123.15,-761.1"
         style="fill:#040606;fill-opacity:1;fill-rule:nonzero;stroke:none"
         transform="matrix(0.13333333,0,0,-0.13333333,0,3188.2933)" />
      <path
         id="path14"
         d="m 24.5547,11232.7 -6.2149,221 592.9372,16.7 c 94.094,2.7 155.008,7.1 182.731,13.4 44.539,10.7 79.879,34.2 106.008,70.6 26.136,36.4 38.328,85.4 36.589,147.1 -1.761,62.8 -15.906,109.7 -42.449,140.9 -26.527,31.1 -58.566,49.4 -96.086,54.8 -37.519,5.4 -99.593,6.9 -186.218,4.5 L 6.21484,11884.6 0,12105.7 l 575.016,16.2 c 131.433,3.7 224.457,0.3 279.05,-10.1 54.606,-10.4 101.028,-31.2 139.27,-62.3 38.234,-31 69.204,-73.1 92.864,-126.3 23.65,-53.1 36.72,-123 39.15,-209.6 2.94,-104.6 -6.9,-184.2 -29.52,-238.9 -22.63,-54.7 -52.79,-98.2 -90.5,-130.7 -37.689,-32.5 -77.56,-54.2 -119.603,-65.4 -62.325,-16.2 -154.719,-26 -277.192,-29.5 l -583.9803,-16.4"
         style="fill:#040606;fill-opacity:1;fill-rule:nonzero;stroke:none"
         transform="matrix(0.13333333,0,0,-0.13333333,0,3188.2933)" />
      <path
         id="path15"
         d="m 486.637,12665.7 12.269,163.2 c 7.957,105.8 8.457,172.1 1.5,199.1 -6.965,27 -20.801,48.8 -41.539,65.3 -20.726,16.6 -47.484,26.1 -80.262,28.6 -36.75,2.7 -67.16,-4.9 -91.242,-22.8 -24.066,-17.9 -40.433,-44.5 -49.082,-79.8 -3.824,-17.7 -9.105,-71.2 -15.832,-160.6 l -12.941,-172.1 z M 1100.29,12397.8 8.16797,12480 43.082,12944.1 c 8.7774,116.7 24.9688,200.7 48.5586,252.2 23.6014,51.4 61.6754,91.1 114.2224,119.1 52.559,28 111.117,39.6 175.676,34.7 81.945,-6.1 147.809,-35.3 197.566,-87.5 49.774,-52.2 78.004,-126.7 84.696,-223.6 31.402,45.6 64.906,82.6 100.512,111.2 35.609,28.5 97.855,65.9 186.742,112.1 l 223.095,117.4 -19.84,-263.8 -249.638,-141.5 c -89.184,-50.2 -145.609,-84.9 -169.281,-104.1 -23.661,-19.2 -40.481,-40.2 -50.43,-62.9 -9.949,-22.8 -16.832,-59.4 -20.641,-110.1 l -3.363,-44.7 455.923,-34.3 -16.59,-220.5"
         style="fill:#040606;fill-opacity:1;fill-rule:nonzero;stroke:none"
         transform="matrix(0.13333333,0,0,-0.13333333,0,3188.2933)" />
      <path
         id="path16"
         d="m 342.141,13904 713.719,-129.7 29.52,162.5 c 11.04,60.7 15.58,105.2 13.61,133.4 -2.41,36.9 -12.03,68.9 -28.88,96 -16.83,27.1 -48.05,52.4 -93.657,75.9 -45.59,23.4 -110.035,42.8 -193.351,57.9 -83.297,15.1 -148.586,19.4 -195.852,12.8 -47.254,-6.6 -85.789,-20.9 -115.59,-42.8 -29.801,-21.9 -52.808,-52.4 -69.012,-91.5 -12.378,-29.1 -26.632,-88 -42.746,-176.7 z m -221.821,-184.4 72.246,397.6 c 16.297,89.7 35.582,156.8 57.844,201.4 30.117,59.8 73.028,107.9 128.746,144.4 55.727,36.4 120.157,60.1 193.266,71.2 73.125,11 160.16,7.3 261.101,-11 88.7,-16.1 163.141,-41.1 223.327,-74.8 73.51,-41.2 129.97,-91.2 169.4,-150 29.9,-44.4 49.31,-100.5 58.22,-168.5 6.47,-50.8 2.4,-116.3 -12.2,-196.7 l -74.38,-409.4 -1077.57,195.8"
         style="fill:#040606;fill-opacity:1;fill-rule:nonzero;stroke:none"
         transform="matrix(0.13333333,0,0,-0.13333333,0,3188.2933)" />
      <path
         id="path17"
         d="m 361.758,14942 62.207,212.2 569.219,-166.8 c 90.336,-26.5 149.656,-41.1 177.956,-43.6 45.67,-3.6 86.55,7.9 122.61,34.5 36.07,26.5 62.78,69.4 80.16,128.7 17.65,60.2 18.65,109.2 3,147 -15.65,37.8 -40.48,65.1 -74.51,81.8 -34.02,16.7 -92.61,37.3 -175.77,61.6 l -581.415,170.5 62.207,212.2 552.018,-161.8 c 126.17,-37 213.64,-68.9 262.36,-95.6 48.74,-26.8 86.5,-60.8 113.31,-102.1 26.81,-41.4 43.29,-91 49.42,-148.8 6.13,-57.9 -2.98,-128.4 -27.36,-211.5 -29.42,-100.4 -63.32,-173.1 -101.7,-218.2 -38.38,-45 -80.5,-77.2 -126.37,-96.5 -45.86,-19.2 -90.51,-27.7 -133.94,-25.3 -64.28,3.8 -155.21,22.9 -272.781,57.4 L 361.758,14942"
         style="fill:#040606;fill-opacity:1;fill-rule:nonzero;stroke:none"
         transform="matrix(0.13333333,0,0,-0.13333333,0,3188.2933)" />
      <path
         id="path18"
         d="m 897.309,16559.1 92.043,201 539.348,-246.8 c 85.59,-39.2 142.21,-62.1 169.84,-68.8 44.7,-10 86.8,-4.5 126.3,16.6 39.51,21 72.11,59.7 97.82,115.8 26.11,57.1 34.15,105.5 24.09,145.1 -10.05,39.7 -30.71,70.2 -61.98,91.6 -31.27,21.5 -86.3,50.2 -165.1,86.3 l -550.9,252.2 92.05,201.1 523.04,-239.5 c 119.55,-54.7 201.53,-98.8 245.91,-132.3 44.39,-33.4 76.88,-72.5 97.47,-117.3 20.59,-44.7 29.78,-96.2 27.53,-154.3 -2.24,-58.2 -21.39,-126.6 -57.46,-205.4 -43.53,-95.1 -87.53,-162.2 -131.98,-201.3 -44.46,-39.1 -90.76,-64.8 -138.92,-77.3 -48.15,-12.5 -93.55,-14.4 -136.19,-5.9 -63.08,13 -150.31,45 -261.71,96 l -531.201,243.2"
         style="fill:#040606;fill-opacity:1;fill-rule:nonzero;stroke:none"
         transform="matrix(0.13333333,0,0,-0.13333333,0,3188.2933)" />
      <path
         id="path19"
         d="m 2377.9,17130 -942.54,557.8 109.58,185.1 857.71,13.3 -629.43,372.5 104.63,176.8 942.54,-557.8 -113.01,-190.9 -839.49,-16.2 614.63,-363.8 -104.62,-176.8"
         style="fill:#040606;fill-opacity:1;fill-rule:nonzero;stroke:none"
         transform="matrix(0.13333333,0,0,-0.13333333,0,3188.2933)" />
      <path
         id="path20"
         d="m 2971.9,18091.4 -898.75,625.9 126.37,181.5 898.76,-625.9 -126.38,-181.5"
         style="fill:#040606;fill-opacity:1;fill-rule:nonzero;stroke:none"
         transform="matrix(0.13333333,0,0,-0.13333333,0,3188.2933)" />
      <path
         id="path21"
         d="m 3413.37,18693.6 -1098.42,382.3 150.46,186.7 805.07,-292.7 -462.89,717.4 147.18,182.6 606.72,-992.5 -148.12,-183.8"
         style="fill:#040606;fill-opacity:1;fill-rule:nonzero;stroke:none"
         transform="matrix(0.13333333,0,0,-0.13333333,0,3188.2933)" />
      <path
         id="path22"
         d="m 3905.88,19285.4 -782.57,766.2 568.12,580.3 132.38,-129.6 -413.41,-422.3 173.49,-169.9 384.66,392.9 131.86,-129.1 -384.67,-392.8 213,-208.6 428.04,437.2 131.85,-129.1 -582.75,-595.2"
         style="fill:#040606;fill-opacity:1;fill-rule:nonzero;stroke:none"
         transform="matrix(0.13333333,0,0,-0.13333333,0,3188.2933)" />
      <path
         id="path23"
         d="m 4412.01,20654.5 125.59,104.9 c 81.44,68 129.41,113.9 143.93,137.7 14.52,23.8 20.5,48.8 17.92,75.2 -2.57,26.4 -14.4,52.3 -35.46,77.5 -23.62,28.3 -50.24,44.8 -79.87,49.6 -29.63,4.8 -60.11,-2 -91.47,-20.4 -15.36,-9.6 -57.45,-43.1 -126.27,-100.6 l -132.47,-110.5 z m 235.29,-626.9 -701.88,840.8 357.28,298.2 c 89.84,75 161.44,122 214.76,140.9 53.33,18.9 108.34,19.2 165.04,1.1 56.71,-18.2 105.82,-52.2 147.3,-101.9 52.67,-63.1 77.62,-130.6 74.84,-202.7 -2.77,-72.1 -36.58,-144.3 -101.43,-216.6 54.58,9.3 104.5,11 149.78,5.4 45.28,-5.7 115.48,-24.3 210.58,-55.8 l 239.59,-78.3 -203.01,-169.5 -275.46,80.5 c -98.17,28.9 -162.38,45.2 -192.64,48.9 -30.26,3.5 -57.02,1 -80.25,-7.7 -23.24,-8.7 -54.35,-29.3 -93.35,-61.8 l -34.41,-28.8 293.02,-350.9 -169.76,-141.8"
         style="fill:#040606;fill-opacity:1;fill-rule:nonzero;stroke:none"
         transform="matrix(0.13333333,0,0,-0.13333333,0,3188.2933)" />
      <path
         id="path24"
         d="m 5279.42,21005.4 166.45,138 c 51.21,-52.6 102.7,-81.8 154.47,-87.6 51.78,-5.9 105.5,10 161.18,47.7 58.97,39.9 94.97,82.5 107.99,127.7 13,45.2 8.2,84.5 -14.41,117.9 -14.51,21.4 -33.16,35.4 -55.93,42 -22.77,6.5 -53.6,4.7 -92.48,-5.3 -26.48,-7.1 -84.28,-27 -173.42,-59.7 -114.64,-42.1 -203.75,-58.8 -267.36,-50.2 -89.45,12.2 -158.48,54.2 -207.06,126 -31.26,46.2 -47.42,98.2 -48.45,156.2 -1.03,57.9 15.98,114.1 51.03,168.5 35.04,54.4 87.42,105.2 157.12,152.4 113.83,77 216.41,110.1 307.72,99.1 91.32,-10.9 166.63,-57.1 225.9,-138.5 l -177.67,-132 c -39.39,41.3 -78.88,63.5 -118.47,66.5 -39.6,2.9 -85.18,-13 -136.73,-48 -53.21,-36 -87.47,-75.1 -102.78,-117.3 -9.89,-27.2 -6.88,-52.5 9.04,-76 14.51,-21.5 36.01,-33.7 64.49,-36.7 36.22,-3.7 105.99,14.1 209.32,53.3 103.32,39.3 183.94,62.1 241.84,68.6 57.9,6.4 112.11,-1.7 162.62,-24.4 50.51,-22.6 95.17,-62.6 133.97,-119.9 35.18,-52 53.68,-110.4 55.53,-175.3 1.84,-65 -16.17,-126.3 -54.02,-184.1 -37.87,-57.8 -96.18,-113.4 -174.95,-166.7 -114.66,-77.6 -220.65,-110.7 -317.98,-99.3 -97.33,11.4 -186.32,63.8 -266.96,157.1"
         style="fill:#040606;fill-opacity:1;fill-rule:nonzero;stroke:none"
         transform="matrix(0.13333333,0,0,-0.13333333,0,3188.2933)" />
      <path
         id="path25"
         d="m 6404.66,21313.8 -548.85,947.8 191.36,110.8 548.85,-947.7 -191.36,-110.9"
         style="fill:#040606;fill-opacity:1;fill-rule:nonzero;stroke:none"
         transform="matrix(0.13333333,0,0,-0.13333333,0,3188.2933)" />
      <path
         id="path26"
         d="m 7031.31,21657.6 -402.67,816 -291.42,-143.8 -82,166.2 780.48,385.1 82,-166.1 -290.76,-143.5 402.67,-816 -198.3,-97.9"
         style="fill:#040606;fill-opacity:1;fill-rule:nonzero;stroke:none"
         transform="matrix(0.13333333,0,0,-0.13333333,0,3188.2933)" />
      <path
         id="path27"
         d="m 7947.71,22068.9 -164.39,430.7 -601.01,449.5 242.19,92.4 395.32,-312.9 81.37,494.9 238,90.8 -149.45,-737.5 163.86,-429.2 -205.89,-78.7"
         style="fill:#040606;fill-opacity:1;fill-rule:nonzero;stroke:none"
         transform="matrix(0.13333333,0,0,-0.13333333,0,3188.2933)" />
      <path
         id="path28"
         d="m 9090.38,23016.6 c 27.41,-121 76.12,-206.3 146.13,-256.1 70,-49.7 148,-64.9 233.97,-45.4 85.97,19.5 149.5,66.5 190.59,140.9 41.09,74.4 47.61,173.6 19.53,297.4 -27.75,122.4 -75.29,207.7 -142.61,255.7 -67.33,48.1 -145.43,62.1 -234.32,41.9 -88.88,-20.1 -153.63,-66.9 -194.2,-140.1 -40.59,-73.3 -46.95,-171.4 -19.09,-294.3 z m -220.57,-57.7 c -24.66,108.8 -29.09,203.8 -13.29,285 11.96,59.9 34.04,116.3 66.26,169 32.21,52.8 70.97,95.3 116.27,127.5 60.15,43.2 133.7,74.7 220.65,94.4 157.38,35.7 294.36,15.4 410.97,-60.8 116.6,-76.2 194.62,-201.2 234.03,-375.1 39.09,-172.5 22.79,-318 -48.87,-436.6 -71.67,-118.7 -185.95,-195.8 -342.84,-231.3 -158.83,-36 -296.11,-16.2 -411.81,59.4 -115.72,75.7 -192.84,198.5 -231.37,368.5"
         style="fill:#040606;fill-opacity:1;fill-rule:nonzero;stroke:none"
         transform="matrix(0.13333333,0,0,-0.13333333,0,3188.2933)" />
      <path
         id="path29"
         d="m 10226.1,22691.9 -132.9,1087.1 745.2,91.2 22.5,-183.9 -525.7,-64.3 31.4,-257.3 453.9,55.5 22.5,-183.9 -453.9,-55.5 56.5,-462 -219.5,-26.9"
         style="fill:#040606;fill-opacity:1;fill-rule:nonzero;stroke:none"
         transform="matrix(0.13333333,0,0,-0.13333333,0,3188.2933)" />
      <path
         id="path30"
         d="m 12126.6,23246.1 -144.3,408.8 -154.5,-404 z m 400.1,-439.9 -240.5,3.9 -91.6,250.3 -437.7,7.1 -94.4,-247.2 -234.6,3.8 444.3,1088.1 233.8,-3.8 420.7,-1102.2"
         style="fill:#040606;fill-opacity:1;fill-rule:nonzero;stroke:none"
         transform="matrix(0.13333333,0,0,-0.13333333,0,3188.2933)" />
      <path
         id="path31"
         d="m 12963.7,23400.9 162.6,-18.2 c 105.5,-11.7 171.8,-14.6 199,-8.6 27.2,6 49.5,19 66.8,39.2 17.2,20.1 27.7,46.5 31.3,79.2 4.1,36.6 -2.4,67.3 -19.4,92 -17.1,24.7 -43.1,42 -78,51.9 -17.6,4.4 -70.9,11.6 -160,21.6 l -171.5,19.1 z m -289.7,-603.7 121.2,1088.5 462.6,-51.6 c 116.3,-12.9 199.7,-32.1 250.3,-57.5 50.5,-25.5 88.8,-64.9 114.9,-118.4 26.1,-53.6 35.6,-112.5 28.5,-176.9 -9.1,-81.6 -40.7,-146.4 -94.6,-194.3 -53.9,-47.8 -129.5,-73.4 -226.5,-76.6 44.4,-33 80.2,-67.8 107.5,-104.4 27.2,-36.6 62.4,-100.2 105.4,-190.7 l 109.3,-227.1 -262.9,29.3 -132.5,254.5 c -47,90.9 -79.7,148.6 -98,172.9 -18.3,24.4 -38.7,41.9 -61,52.7 -22.4,10.7 -58.8,18.9 -109.3,24.6 l -44.5,4.9 -50.7,-454.4 -219.7,24.5"
         style="fill:#040606;fill-opacity:1;fill-rule:nonzero;stroke:none"
         transform="matrix(0.13333333,0,0,-0.13333333,0,3188.2933)" />
      <path
         id="path32"
         d="m 14038.9,22604.7 188.1,890.3 -318,67.1 38.3,181.3 851.6,-179.9 -38.3,-181.3 -317.3,67 -188.1,-890.2 -216.3,45.7"
         style="fill:#040606;fill-opacity:1;fill-rule:nonzero;stroke:none"
         transform="matrix(0.13333333,0,0,-0.13333333,0,3188.2933)" />
      <path
         id="path33"
         d="m 14791.5,22803.6 211.6,-44 c -9.1,-72.8 0.2,-131.3 27.9,-175.4 27.7,-44.1 73.7,-76.2 137.9,-96.2 68,-21.1 123.7,-22.7 167.1,-4.7 43.5,18 71.2,46.3 83.2,84.8 7.7,24.7 7,48 -2.1,69.9 -9.1,21.9 -29.7,44.9 -61.8,69 -22.1,16.2 -73.7,49 -154.8,98.3 -104.5,63.3 -173.1,122.5 -206,177.6 -46.3,77.6 -56.5,157.7 -30.7,240.5 16.5,53.2 47.2,98.3 91.8,135.3 44.6,36.9 99.2,58.7 163.5,65.2 64.4,6.5 136.8,-2.7 217.1,-27.7 131.3,-40.9 221.1,-100.5 269.5,-178.7 48.4,-78.2 59.3,-165.9 32.7,-262.9 l -214,56.5 c 7.7,56.5 0.4,101.2 -22,134 -22.4,32.8 -63.3,58.5 -122.7,77 -61.4,19.1 -113.3,21.5 -155.9,7.1 -27.4,-9.2 -45.3,-27.4 -53.8,-54.5 -7.7,-24.7 -3.8,-49.1 11.6,-73.2 19.7,-30.7 77.1,-74.1 172.3,-130.4 95.1,-56.3 163.3,-105 204.4,-146.3 41.1,-41.2 68.6,-88.6 82.4,-142.2 13.8,-53.6 10.4,-113.5 -10.2,-179.6 -18.6,-59.9 -52.8,-110.8 -102.3,-152.7 -49.6,-42 -108.8,-66.2 -177.6,-72.7 -68.8,-6.4 -148.6,4.5 -239.4,32.8 -132.2,41.2 -224.2,103.4 -276,186.6 -51.8,83.1 -66.4,185.4 -43.7,306.6"
         style="fill:#040606;fill-opacity:1;fill-rule:nonzero;stroke:none"
         transform="matrix(0.13333333,0,0,-0.13333333,0,3188.2933)" />
      <path
         id="path34"
         d="m 15785.9,22321.4 195.7,-76 -54.3,-140 c -22,-56.6 -44.2,-99.4 -66.7,-128.4 -22.5,-28.9 -52.3,-51.1 -89.6,-66.6 -37.2,-15.4 -79.6,-22.5 -127.2,-21.1 l -6.9,95.7 c 44.5,-2.4 79.5,4.6 105.1,20.9 25.5,16.2 46.4,43.9 62.7,83 l -94.7,36.8 75.9,195.7"
         style="fill:#040606;fill-opacity:1;fill-rule:nonzero;stroke:none"
         transform="matrix(0.13333333,0,0,-0.13333333,0,3188.2933)" />
      <path
         id="path35"
         d="m 16614.9,22140.8 200.7,-80.3 c -21.7,-70.1 -22.7,-129.2 -3.1,-177.5 19.7,-48.3 59.3,-87.9 119.1,-118.7 63.2,-32.7 117.8,-44 163.7,-33.8 45.9,10.2 78.2,33.2 96.7,69 11.9,23 15.2,46.1 10.1,69.2 -5.2,23.1 -21.5,49.4 -48.9,78.7 -18.9,19.9 -64,61.1 -135.3,123.8 -91.8,80.5 -149.1,150.8 -171.9,210.8 -32.1,84.4 -28.2,165.1 11.6,242.1 25.6,49.5 63.6,88.6 114,117.2 50.4,28.6 107.9,40.6 172.4,35.8 64.5,-4.8 134.2,-26.5 209,-65.2 122.1,-63.1 200.1,-137.4 234.2,-222.8 34,-85.4 29.5,-173.6 -13.6,-264.6 l -200.9,92.9 c 17.4,54.4 18,99.6 1.7,135.8 -16.4,36.2 -52.2,68.6 -107.5,97.2 -57.1,29.5 -107.8,40.9 -152.2,34.1 -28.6,-4.3 -49.4,-19 -62.4,-44.2 -11.9,-23 -12.4,-47.8 -1.4,-74.2 14.1,-33.6 63,-86.4 146.9,-158.3 83.9,-72 142.5,-131.9 175.9,-179.7 33.3,-47.8 52.1,-99.2 56.3,-154.4 4.3,-55.2 -9.4,-113.6 -41.2,-175.1 -28.9,-55.7 -71.3,-99.9 -127.5,-132.6 -56.1,-32.6 -118.6,-46.2 -187.5,-40.6 -68.8,5.7 -145.5,30.3 -230,74 -123,63.6 -202.8,140.8 -239.3,231.8 -36.5,90.9 -33.1,194.1 10.4,309.6"
         style="fill:#040606;fill-opacity:1;fill-rule:nonzero;stroke:none"
         transform="matrix(0.13333333,0,0,-0.13333333,0,3188.2933)" />
      <path
         id="path36"
         d="m 18234.3,21261.9 142.4,-174.1 c -92.9,-82.1 -187.2,-126.6 -282.9,-133.4 -95.7,-6.8 -192.8,21.9 -291.2,86.1 -121.8,79.5 -194.8,186.4 -218.9,320.8 -24.1,134.4 10.9,273.7 105.1,418.1 99.6,152.6 216.4,245.5 350.3,278.5 134,33 265.2,7.6 393.6,-76.2 112.2,-73.3 181.7,-165.9 208.5,-277.9 16.2,-66.4 10.7,-143.2 -16.3,-230.2 l -211.9,75.8 c 20.1,54.7 22,107 5.6,157 -16.5,49.9 -49.3,91 -98.5,123.1 -68,44.4 -139.1,56 -213.3,34.8 -74.2,-21.2 -146.9,-86.4 -218.2,-195.7 -75.7,-116 -108.7,-212.1 -99.1,-288.6 9.6,-76.4 47.7,-136.4 114.5,-179.9 49.2,-32.2 101.7,-44.2 157.6,-36 55.9,8.2 113.4,40.8 172.7,97.8"
         style="fill:#040606;fill-opacity:1;fill-rule:nonzero;stroke:none"
         transform="matrix(0.13333333,0,0,-0.13333333,0,3188.2933)" />
      <path
         id="path37"
         d="m 18363.7,20671 664.5,870.5 175.8,-134.1 -664.5,-870.6 -175.8,134.2"
         style="fill:#040606;fill-opacity:1;fill-rule:nonzero;stroke:none"
         transform="matrix(0.13333333,0,0,-0.13333333,0,3188.2933)" />
      <path
         id="path38"
         d="m 18736.3,20388.3 723.7,822 609.5,-536.6 -122.4,-139.1 -443.6,390.5 -160.4,-182.2 412.7,-363.3 -121.9,-138.5 -412.7,363.3 -197,-223.8 459.3,-404.2 -122,-138.6 -625.2,550.5"
         style="fill:#040606;fill-opacity:1;fill-rule:nonzero;stroke:none"
         transform="matrix(0.13333333,0,0,-0.13333333,0,3188.2933)" />
      <path
         id="path39"
         d="m 19517.8,19686 802.4,745.4 146.5,-157.6 -230.8,-826.2 535.8,497.8 139.9,-150.5 -802.4,-745.4 -151,162.5 222.7,809.6 -523.2,-486.1 -139.9,150.5"
         style="fill:#040606;fill-opacity:1;fill-rule:nonzero;stroke:none"
         transform="matrix(0.13333333,0,0,-0.13333333,0,3188.2933)" />
      <path
         id="path40"
         d="m 21019.9,18531.4 74.5,-212.2 c -115.3,-45.6 -219.2,-55.2 -311.5,-28.9 -92.3,26.2 -173.7,86.3 -244.3,180.3 -87.4,116.3 -119.5,241.7 -96.3,376.2 23.2,134.6 103.7,253.6 241.4,357.1 145.7,109.5 287.2,157 424.4,142.3 137.1,-14.7 251.8,-83.3 344,-206 80.4,-107.1 114.2,-217.9 101.1,-332.3 -7.5,-68 -38.8,-138.2 -93.9,-210.8 l -173.3,143.6 c 37.6,44.5 57.2,93 58.8,145.6 1.6,52.6 -15.3,102.4 -50.6,149.3 -48.7,65 -111.6,100.1 -188.6,105.5 -76.9,5.4 -167.5,-31.1 -271.9,-109.5 -110.7,-83.1 -174.5,-162.3 -191.6,-237.4 -17.1,-75.1 -1.7,-144.5 46.2,-208.3 35.3,-46.9 80.6,-76.1 135.9,-87.5 55.3,-11.4 120.5,-0.4 195.7,33"
         style="fill:#040606;fill-opacity:1;fill-rule:nonzero;stroke:none"
         transform="matrix(0.13333333,0,0,-0.13333333,0,3188.2933)" />
      <path
         id="path41"
         d="m 20945.7,17935.4 937.3,566.6 420.1,-695 -158.6,-95.9 -305.7,505.8 -207.8,-125.6 284.4,-470.6 -157.9,-95.4 -284.4,470.5 -255.1,-154.2 316.5,-523.6 -157.9,-95.4 -430.9,712.8"
         style="fill:#040606;fill-opacity:1;fill-rule:nonzero;stroke:none"
         transform="matrix(0.13333333,0,0,-0.13333333,0,3188.2933)" />
      <path
         id="path42"
         d="m 21775.1,17235.8 111.8,-185.1 c -59.6,-42.8 -96.1,-89.4 -109.6,-139.8 -13.4,-50.3 -5.6,-105.8 23.4,-166.4 30.7,-64.3 67.5,-106.2 110.2,-125.7 42.8,-19.6 82.4,-20.7 118.8,-3.3 23.3,11.2 39.9,27.6 49.8,49.1 9.8,21.6 12.6,52.3 8.4,92.3 -3.1,27.2 -14.2,87.3 -33.3,180.3 -24.6,119.6 -28,210.2 -10,271.9 25.4,86.6 77.1,148.7 155.3,186 50.3,24.1 104.2,32.4 161.7,24.8 57.4,-7.5 110.4,-32.7 159,-75.4 48.6,-42.7 91.1,-102.1 127.4,-178 59.4,-124 76.9,-230.3 52.5,-319 -24.4,-88.7 -81.2,-156.3 -170.4,-202.9 l -104.2,195.3 c 46.6,32.8 74.4,68.6 83.2,107.3 8.8,38.7 -0.3,86.2 -27.1,142.3 -27.8,58 -61.4,97.7 -100.9,119.1 -25.4,13.8 -50.9,14.5 -76.5,2.3 -23.3,-11.2 -38.6,-30.6 -45.7,-58.3 -9.1,-35.3 -1.9,-107 21.6,-215 23.5,-108 34.2,-191.1 32,-249.3 -2.3,-58.2 -18.3,-110.6 -48.2,-157.2 -29.9,-46.6 -76.1,-84.8 -138.5,-114.7 -56.6,-27.1 -117.1,-36.8 -181.6,-29 -64.5,7.8 -122.5,34.7 -174,80.7 -51.6,46.1 -97.9,112 -139,197.8 -59.7,124.9 -76.8,234.6 -51.1,329.2 25.7,94.5 90.7,174.8 195,240.7"
         style="fill:#040606;fill-opacity:1;fill-rule:nonzero;stroke:none"
         transform="matrix(0.13333333,0,0,-0.13333333,0,3188.2933)" />
      <path
         id="path43"
         d="m 22876,15561.2 58.5,-40.9 c 43.6,-30 80.5,-40.2 110.9,-30.5 25.6,8.1 44.4,24.7 56.3,49.7 11.9,24.9 12.7,53.8 2.2,86.5 -10.1,31.8 -26,54.2 -47.6,67.2 -21.7,12.9 -43,16.1 -63.8,9.4 -24.7,-7.8 -49.8,-32.5 -75.2,-74.1 z m -242,9.1 c -38,38.7 -76.9,64.1 -116.9,76.5 -40,12.3 -77.1,13.1 -111.3,2.2 -43.2,-13.8 -73.9,-39.1 -92.2,-76.1 -18.3,-36.9 -19.9,-79.1 -4.7,-126.6 10,-31.3 25.7,-59.4 47.3,-84.4 21.5,-25 52,-50.1 91.4,-75.2 z m -151.8,-734.4 -193,71.8 c 10.1,68.5 31.8,138.2 65.2,208.9 -51.5,30.2 -93.8,66.1 -126.9,107.8 -33.2,41.7 -60.2,95.3 -81,160.8 -41.5,130 -36.1,239.4 16.1,328.2 40.3,68.7 97.2,114.9 170.8,138.3 66.9,21.3 133.4,20.6 199.5,-2.3 66.1,-22.8 131.4,-67.6 196.1,-134.3 30.8,49 62.5,88.7 95,118.9 32.4,30.2 65.7,50.7 99.9,61.6 63.1,20.1 124.7,11.9 184.7,-24.6 60,-36.6 104.9,-101.6 134.7,-195.1 28.7,-90.1 28.1,-167.9 -1.7,-233.4 -29.9,-65.4 -78,-108.7 -144.4,-129.9 -42.3,-13.5 -86.4,-13.7 -132.4,-0.6 -45.9,13 -105.1,50.1 -177.3,111.2 l -145.2,-206.2 c 35.8,-7.4 80.1,-9.5 132.9,-6.2 l 16.3,-194 c -69.8,-2.4 -121.6,-1.6 -155.5,2.2 -33.9,3.8 -63.2,10.2 -88,19 -13.8,-29 -27.5,-65.1 -41.1,-108.4 -13.7,-43.3 -21.9,-74.5 -24.7,-93.7"
         style="fill:#040606;fill-opacity:1;fill-rule:nonzero;stroke:none"
         transform="matrix(0.13333333,0,0,-0.13333333,0,3188.2933)" />
      <path
         id="path44"
         d="m 22518.9,14012.1 896.1,158 -56.5,320.1 182.5,32.2 151.2,-857.1 -182.5,-32.2 -56.3,319.3 -896.1,-158.1 -38.4,217.8"
         style="fill:#040606;fill-opacity:1;fill-rule:nonzero;stroke:none"
         transform="matrix(0.13333333,0,0,-0.13333333,0,3188.2933)" />
      <path
         id="path45"
         d="m 22633.9,13303.3 1091.6,89.1 66,-809.3 -184.6,-15.1 -48.1,588.9 -242,-19.7 44.7,-548 -183.9,-15 -44.7,548 -297.1,-24.2 49.8,-609.9 -183.9,-15 -67.8,830.2"
         style="fill:#040606;fill-opacity:1;fill-rule:nonzero;stroke:none"
         transform="matrix(0.13333333,0,0,-0.13333333,0,3188.2933)" />
      <path
         id="path46"
         d="m 23098.7,11550.2 -71.8,-213.1 c -119,35 -206.8,91.2 -263.4,168.7 -56.6,77.5 -83.9,175 -81.8,292.5 2.7,145.4 54.5,264 155.5,355.9 101,91.8 237.7,136.2 410,133.1 182.2,-3.3 323,-52.9 422.1,-148.9 99.1,-95.9 147.3,-220.5 144.6,-373.9 -2.4,-134 -44,-242.1 -124.7,-324.3 -47.7,-49 -115.6,-85.1 -203.7,-108.4 l -48.3,219.8 c 57,11.9 102.3,38.1 135.9,78.6 33.6,40.5 50.9,90.1 52,148.9 1.4,81.2 -26.5,147.5 -83.8,199.1 -57.4,51.6 -151.3,78.6 -281.8,80.9 -138.4,2.5 -237.5,-20.6 -297.1,-69.3 -59.7,-48.8 -90.2,-113 -91.6,-192.7 -1.1,-58.7 16.7,-109.6 53.2,-152.6 36.6,-43 94.8,-74.4 174.7,-94.3"
         style="fill:#040606;fill-opacity:1;fill-rule:nonzero;stroke:none"
         transform="matrix(0.13333333,0,0,-0.13333333,0,3188.2933)" />
      <path
         id="path47"
         d="m 22675.4,11125.3 1087,-133.2 -26.9,-219.5 -427.8,52.4 -52.7,-430.1 427.8,-52.4 -26.9,-219.5 -1087,133.2 26.9,219.5 475.3,-58.2 52.7,430.1 -475.3,58.2 26.9,219.5"
         style="fill:#040606;fill-opacity:1;fill-rule:nonzero;stroke:none"
         transform="matrix(0.13333333,0,0,-0.13333333,0,3188.2933)" />
      <path
         id="path48"
         d="m 22524.4,10002.5 1067.1,-246.5 -48.4,-209.7 -813.5,-272.1 712.6,-164.6 -46.2,-200.2 -1067.1,246.5 49.9,216.2 795.2,269.4 -695.8,160.8 46.2,200.2"
         style="fill:#040606;fill-opacity:1;fill-rule:nonzero;stroke:none"
         transform="matrix(0.13333333,0,0,-0.13333333,0,3188.2933)" />
      <path
         id="path49"
         d="m 22716.6,8551.6 c -117,41 -215.2,45 -294.5,12 -79.4,-32.9 -133.6,-91 -162.7,-174.2 -29.1,-83.2 -23,-162 18.3,-236.3 41.3,-74.3 121.9,-132.4 241.7,-174.4 118.5,-41.4 216,-46.3 292.4,-14.8 76.5,31.6 129.8,90.4 159.9,176.4 30.1,86.1 24.8,165.7 -15.8,239 -40.6,73.3 -120.3,130.7 -239.3,172.3 z m 68.2,217.6 c 105.3,-36.8 188.2,-83.5 248.6,-140 44.5,-41.9 80.5,-90.5 108.1,-145.8 27.6,-55.3 43.1,-110.7 46.4,-166.2 4.7,-74 -7.6,-153 -37.1,-237.2 -53.2,-152.3 -143.1,-257.6 -269.6,-316 -126.5,-58.4 -273.9,-58.2 -442.2,0.7 -166.9,58.4 -281.6,149.4 -344.1,273.1 -62.5,123.7 -67.2,261.5 -14.1,413.3 53.7,153.7 143.4,259.6 268.9,317.5 125.5,57.9 270.5,58.1 435.1,0.6"
         style="fill:#040606;fill-opacity:1;fill-rule:nonzero;stroke:none"
         transform="matrix(0.13333333,0,0,-0.13333333,0,3188.2933)" />
      <path
         id="path50"
         d="m 21836.9,7757.4 983.8,-460.7 -93.8,-200.2 -816.6,382.4 -233.2,-498 -167.1,78.3 326.9,698.2"
         style="fill:#040606;fill-opacity:1;fill-rule:nonzero;stroke:none"
         transform="matrix(0.13333333,0,0,-0.13333333,0,3188.2933)" />
      <path
         id="path51"
         d="m 21802.3,6455.3 c -106.4,63.7 -201.8,87.4 -286.1,71.1 -84.3,-16.3 -149.1,-62.3 -194.4,-137.9 -45.2,-75.7 -55.1,-154 -29.7,-235.2 25.5,-81.1 92.7,-154.2 201.7,-219.4 107.7,-64.5 202.2,-88.9 283.5,-73.4 81.2,15.5 145.2,62.4 192,140.6 46.8,78.2 57.7,157.3 32.7,237.3 -25,79.9 -91.6,152.3 -199.7,216.9 z m 110.6,199.4 c 95.7,-57.2 167.5,-119.6 215.3,-187.1 35.1,-50 60.6,-104.9 76.5,-164.6 16,-59.8 20,-117.1 12,-172.2 -10.2,-73.3 -38.2,-148.3 -84,-224.8 -82.9,-138.5 -192.1,-223.6 -327.7,-255.3 -135.7,-31.7 -280,-1.8 -433,89.7 -151.8,90.8 -245.8,203 -282.1,336.8 -36.4,133.7 -13.3,269.6 69.3,407.7 83.6,139.7 192.8,225.4 327.4,256.8 134.6,31.5 276.7,2.5 426.3,-87"
         style="fill:#040606;fill-opacity:1;fill-rule:nonzero;stroke:none"
         transform="matrix(0.13333333,0,0,-0.13333333,0,3188.2933)" />
      <path
         id="path52"
         d="m 20801.2,5209 146.8,-111.8 -289,-379.1 -347,264.5 c -7.5,64 1.8,141.3 27.9,231.9 26.2,90.6 66.6,171.8 121.3,243.4 69.4,91.1 149.1,156 238.9,194.6 89.9,38.6 183.3,47.8 280.4,27.7 97.1,-20.2 187.4,-62.1 271,-125.8 90.6,-69.2 156.8,-149.6 198.3,-241.4 41.5,-91.8 53.1,-188.6 34.9,-290.6 -13.7,-77.9 -52.2,-158.4 -115.6,-241.6 -82.4,-108.1 -169.5,-175.3 -261.2,-201.5 -91.7,-26.2 -184.2,-17.6 -277.5,26 l 100.5,199.6 c 52.1,-20.4 103.5,-23 154,-8 50.6,15 95.2,47.8 133.9,98.5 58.6,76.8 80.8,156.5 66.6,239 -14.1,82.5 -69.1,160.3 -165,233.3 -103.3,78.8 -198.4,115 -285.1,108.4 -86.7,-6.5 -158.4,-47 -215.2,-121.5 -28.1,-36.8 -49,-79.2 -62.8,-127.3 -13.8,-48 -20.5,-93.2 -20.1,-135.4 l 110.5,-84.3 153.5,201.4"
         style="fill:#040606;fill-opacity:1;fill-rule:nonzero;stroke:none"
         transform="matrix(0.13333333,0,0,-0.13333333,0,3188.2933)" />
      <path
         id="path53"
         d="m 19841.2,4692.1 335.5,-316.1 736.8,-142.9 -177.8,-188.7 -492.1,109.5 142.2,-480.9 -174.7,-185.4 -186.6,729 -334.4,315.1 151.1,160.4"
         style="fill:#040606;fill-opacity:1;fill-rule:nonzero;stroke:none"
         transform="matrix(0.13333333,0,0,-0.13333333,0,3188.2933)" />
      <path
         id="path54"
         d="M 7453.44,861.301 7842.53,1861.6 8044.5,1783 7655.41,782.699 7453.44,861.301"
         style="fill:#040606;fill-opacity:1;fill-rule:nonzero;stroke:none"
         transform="matrix(0.13333333,0,0,-0.13333333,0,3188.2933)" />
      <path
         id="path55"
         d="m 7939.67,1041.3 207.14,-44.402 c -9.37,-71.199 -0.59,-128.597 26.32,-172 26.91,-43.398 71.77,-75.097 134.56,-95 66.5,-21.199 121.09,-23.097 163.77,-5.699 42.67,17.399 70,45 81.99,82.699 7.7,24.102 7.15,47 -1.63,68.504 -8.79,21.496 -28.86,44.098 -60.2,67.899 -21.53,16.097 -71.91,48.5 -151.14,97.299 -101.97,62.6 -168.91,121.1 -200.84,175.3 -44.88,76.2 -54.44,154.8 -28.69,235.8 16.57,52 46.83,96.1 90.8,132 43.96,36 97.51,57 160.64,63 63.12,6 133.99,-3.4 212.6,-28.5 128.37,-40.8 216.04,-99.7 263.02,-176.6 46.98,-76.9 57.14,-162.9 30.51,-257.9 l -209.4,56.7 c 7.88,55.3 0.95,99.2 -20.79,131.4 -21.74,32.3 -61.68,57.7 -119.82,76.2 -60,19.1 -110.91,21.7 -152.69,7.8 -26.9,-8.8 -44.56,-26.5 -52.99,-53 -7.7,-24.2 -4.06,-48.1 10.93,-71.9 19.09,-30.1 75.1,-73 168.02,-128.7 92.91,-55.7 159.41,-103.9 199.48,-144.5 40.07,-40.7 66.72,-87.298 79.95,-140.001 13.22,-52.597 9.54,-111.199 -11.02,-175.801 -18.65,-58.699 -52.4,-108.398 -101.23,-149.199 -48.84,-40.801 -106.99,-64.101 -174.43,-70.097 -67.46,-5.903 -145.6,5.199 -234.44,33.496 -129.3,41.203 -219.09,102.601 -269.37,184.504 -50.3,81.796 -63.97,182 -41.05,300.698"
         style="fill:#040606;fill-opacity:1;fill-rule:nonzero;stroke:none"
         transform="matrix(0.13333333,0,0,-0.13333333,0,3188.2933)" />
      <path
         id="path56"
         d="m 8901.7,383.402 235.43,1038.098 211.35,-47.9 -195.44,-861.799 525.5,-119.199 -40,-176.301 -736.84,167.101"
         style="fill:#040606;fill-opacity:1;fill-rule:nonzero;stroke:none"
         transform="matrix(0.13333333,0,0,-0.13333333,0,3188.2933)" />
      <path
         id="path57"
         d="m 10468.3,522.102 -93.1,414.496 -197.1,-375.2 z m 338.4,-474.4028 -233.6,31.6992 -60.2,254.1996 -425.1,57.601 L 9967.27,161.5 9739.46,192.301 10297.8,1199.8 10524.9,1169 10806.7,47.6992"
         style="fill:#040606;fill-opacity:1;fill-rule:nonzero;stroke:none"
         transform="matrix(0.13333333,0,0,-0.13333333,0,3188.2933)" />
      <path
         id="path58"
         d="m 10985.4,33.8008 35,1072.6992 324.2,-10.6 170.7,-738.099 216.4,725.499 324.9,-10.6 -35.1,-1072.7 -201.2,6.5 27.6,844.5 -240.5,-837.5 -208.6,6.8008 -184.6,851.3982 -27.6,-844.4998 -201.2,6.6016"
         style="fill:#040606;fill-opacity:1;fill-rule:nonzero;stroke:none"
         transform="matrix(0.13333333,0,0,-0.13333333,0,3188.2933)" />
      <path
         id="path59"
         d="m 12832.7,471 -174.4,387.402 -117.8,-407.203 z m 426.8,-396.6992 -235.2,-15.8985 -110,236.8987 -428,-29 L 12414.4,17.1016 12185,1.59766 12529.6,1100.6 l 228.6,15.5 501.3,-1041.7992"
         style="fill:#040606;fill-opacity:1;fill-rule:nonzero;stroke:none"
         transform="matrix(0.13333333,0,0,-0.13333333,0,3188.2933)" />
      <path
         id="path60"
         d="m 13574.3,596.301 46.5,-283.199 197.9,32.5 c 77.1,12.699 125.6,22.898 145.6,30.597 30.9,11 54.4,29.403 70.7,55 16.3,25.699 21.4,57.301 15.2,94.899 -5.2,31.804 -17.3,57.5 -36.4,77.101 -19,19.602 -43.9,32.102 -74.7,37.403 -30.8,5.398 -94.9,0.097 -192.2,-15.903 z m -69.2,421.199 40.2,-244.898 140.2,23 c 83.3,13.699 134.9,23.398 154.7,29.097 35.9,10.403 62.6,27.801 80.1,52.199 17.5,24.301 23.5,53.602 17.9,87.801 -5.4,32.801 -18.8,57.901 -40.2,75.401 -21.4,17.5 -50.3,25.5 -86.7,24 -21.6,-1.1 -82.7,-9.9 -183.4,-26.4 z m -242.8,141.2 423.4,69.5 c 83.8,13.8 146.9,20.5 189.2,20.3 42.3,-0.2 81.6,-8.7 117.7,-25.5 36.1,-16.9 68.1,-41.9 95.8,-75.2 27.7,-33.3 45.3,-72.8 52.9,-118.6 8.1,-49.598 2.2,-97.302 -17.7,-143.102 -20,-45.797 -51.1,-82.797 -93.4,-110.996 67.6,-8.204 122.4,-32.102 164.6,-71.7 42.1,-39.601 68.1,-90 78.2,-151.101 7.9,-48.203 4.4,-96.899 -10.5,-146.102 -15,-49.097 -39.6,-90.5 -73.9,-124.097 -34.3,-33.602 -79.3,-58.204 -135.1,-73.801 -35.1,-9.703 -120.6,-26.199 -256.8,-49.5 L 13436.2,99.6016 13262.3,1158.7"
         style="fill:#040606;fill-opacity:1;fill-rule:nonzero;stroke:none"
         transform="matrix(0.13333333,0,0,-0.13333333,0,3188.2933)" />
      <path
         id="path61"
         d="m 15005,854.301 -244.8,347.199 -38.3,-422.102 z m 494.4,-308.399 -227.9,-60.3 -153,211.699 -414.8,-109.699 -23.2,-258.403 -222.3,-58.797 129.6,1144.498 221.6,58.7 690,-927.698"
         style="fill:#040606;fill-opacity:1;fill-rule:nonzero;stroke:none"
         transform="matrix(0.13333333,0,0,-0.13333333,0,3188.2933)" />
      <path
         id="path62"
         d="m 15560.6,1515.7 247,-666.602 151.7,56.203 c 56.8,21.097 96.6,39.398 119.4,55.199 29.9,20.402 52,44.5 66.5,72.2 14.4,27.8 20.2,66.7 17.2,116.9 -3,50.2 -18.9,114.1 -47.7,192 -28.8,77.8 -57.8,134.9 -87,171.5 -29.1,36.6 -60.4,61.9 -93.8,76.1 -33.3,14.2 -70.5,18.4 -111.6,12.6 -30.7,-4.2 -87.5,-21.6 -170.4,-52.3 z m -266.3,95 371.4,137.6 c 83.8,31 150,48.3 198.7,51.7 65.5,4.5 127.5,-7.6 186.1,-36.4 58.5,-28.8 110.7,-71.3 156.5,-127.5 45.8,-56.1 86.1,-131.3 121.1,-225.6 30.7,-82.9 46.8,-158.1 48.5,-225.7 1.9,-82.5 -12.1,-155.1 -41.9,-217.698 -22.6,-47.403 -60.3,-91.801 -113.1,-133.204 -39.6,-30.898 -96.9,-60.199 -172,-87.996 L 15667.2,604.199 15294.3,1610.7"
         style="fill:#040606;fill-opacity:1;fill-rule:nonzero;stroke:none"
         transform="matrix(0.13333333,0,0,-0.13333333,0,3188.2933)" />
      <path
         id="path63"
         d="m 5755.2,2439.8 c 0,-127.9 -103.64,-231.5 -231.48,-231.5 -127.85,0 -231.48,103.6 -231.48,231.5 0,127.8 103.63,231.5 231.48,231.5 127.84,0 231.48,-103.7 231.48,-231.5"
         style="fill:#040606;fill-opacity:1;fill-rule:nonzero;stroke:none"
         transform="matrix(0.13333333,0,0,-0.13333333,0,3188.2933)" />
      <path
         id="path64"
         d="m 18399.1,2439.8 c 0,-127.9 -103.6,-231.5 -231.4,-231.5 -127.9,0 -231.5,103.6 -231.5,231.5 0,127.8 103.6,231.5 231.5,231.5 127.8,0 231.4,-103.7 231.4,-231.5"
         style="fill:#040606;fill-opacity:1;fill-rule:nonzero;stroke:none"
         transform="matrix(0.13333333,0,0,-0.13333333,0,3188.2933)" />
    </g>
  </g>
</svg>
